<mxfile host="app.diagrams.net" agent="Mozilla/5.0 (Windows NT 10.0; Win64; x64) AppleWebKit/537.36 (KHTML, like Gecko) Chrome/140.0.0.0 Safari/537.36" version="28.2.3">
  <diagram name="PÃ¡gina-1" id="CpojkHMAHSbBC5c7CRS6">
    <mxGraphModel dx="1869" dy="535" grid="1" gridSize="10" guides="1" tooltips="1" connect="1" arrows="1" fold="1" page="1" pageScale="1" pageWidth="827" pageHeight="1169" math="0" shadow="0">
      <root>
        <mxCell id="0" />
        <mxCell id="1" parent="0" />
        <mxCell id="PciFAnugvwf79IO0dadg-13" value="&lt;span style=&quot;color: rgb(249, 250, 251); font-family: Menlo, Monaco, &amp;quot;Cascadia Mono&amp;quot;, Consolas, &amp;quot;Ubuntu Mono&amp;quot;, &amp;quot;DejaVu Sans Mono&amp;quot;, &amp;quot;Liberation Mono&amp;quot;, &amp;quot;JetBrains Mono&amp;quot;, &amp;quot;Fira Code&amp;quot;, Cousine, &amp;quot;Roboto Mono&amp;quot;, &amp;quot;Courier New&amp;quot;, Courier, sans-serif, system-ui; font-size: 14px; text-align: left; background-color: rgb(44, 44, 46);&quot;&gt;&amp;lt;&amp;lt;interface&amp;gt;&amp;gt;&lt;span style=&quot;white-space: pre;&quot;&gt;&#x9;&lt;/span&gt;ReprodutorMusical&lt;/span&gt;" style="swimlane;fontStyle=0;childLayout=stackLayout;horizontal=1;startSize=26;fillColor=none;horizontalStack=0;resizeParent=1;resizeParentMax=0;resizeLast=0;collapsible=1;marginBottom=0;whiteSpace=wrap;html=1;" vertex="1" parent="1">
          <mxGeometry x="-280" y="40" width="280" height="104" as="geometry">
            <mxRectangle x="-280" y="40" width="280" height="30" as="alternateBounds" />
          </mxGeometry>
        </mxCell>
        <mxCell id="PciFAnugvwf79IO0dadg-14" value="&amp;nbsp;+ tocar(): void&amp;nbsp;" style="text;strokeColor=none;fillColor=none;align=left;verticalAlign=top;spacingLeft=4;spacingRight=4;overflow=hidden;rotatable=0;points=[[0,0.5],[1,0.5]];portConstraint=eastwest;whiteSpace=wrap;html=1;" vertex="1" parent="PciFAnugvwf79IO0dadg-13">
          <mxGeometry y="26" width="280" height="26" as="geometry" />
        </mxCell>
        <mxCell id="PciFAnugvwf79IO0dadg-15" value="&amp;nbsp;+ pausar(): void" style="text;strokeColor=none;fillColor=none;align=left;verticalAlign=top;spacingLeft=4;spacingRight=4;overflow=hidden;rotatable=0;points=[[0,0.5],[1,0.5]];portConstraint=eastwest;whiteSpace=wrap;html=1;" vertex="1" parent="PciFAnugvwf79IO0dadg-13">
          <mxGeometry y="52" width="280" height="26" as="geometry" />
        </mxCell>
        <mxCell id="PciFAnugvwf79IO0dadg-16" value="&amp;nbsp;+ selecionarMusica(musica: String): void" style="text;strokeColor=none;fillColor=none;align=left;verticalAlign=top;spacingLeft=4;spacingRight=4;overflow=hidden;rotatable=0;points=[[0,0.5],[1,0.5]];portConstraint=eastwest;whiteSpace=wrap;html=1;" vertex="1" parent="PciFAnugvwf79IO0dadg-13">
          <mxGeometry y="78" width="280" height="26" as="geometry" />
        </mxCell>
        <mxCell id="PciFAnugvwf79IO0dadg-48" style="edgeStyle=orthogonalEdgeStyle;rounded=0;orthogonalLoop=1;jettySize=auto;html=1;" edge="1" parent="1" target="PciFAnugvwf79IO0dadg-17">
          <mxGeometry relative="1" as="geometry">
            <mxPoint x="60" y="510" as="sourcePoint" />
          </mxGeometry>
        </mxCell>
        <mxCell id="PciFAnugvwf79IO0dadg-17" value="&lt;span style=&quot;color: rgb(21, 22, 23); font-family: Menlo, Monaco, &amp;quot;Cascadia Mono&amp;quot;, Consolas, &amp;quot;Ubuntu Mono&amp;quot;, &amp;quot;DejaVu Sans Mono&amp;quot;, &amp;quot;Liberation Mono&amp;quot;, &amp;quot;JetBrains Mono&amp;quot;, &amp;quot;Fira Code&amp;quot;, Cousine, &amp;quot;Roboto Mono&amp;quot;, &amp;quot;Courier New&amp;quot;, Courier, sans-serif, system-ui; font-size: 14px; text-align: left; background-color: rgb(199, 199, 200);&quot;&gt;&amp;lt;&amp;lt;interface&amp;gt;&amp;gt;&lt;/span&gt;&lt;span style=&quot;color: rgb(21, 22, 23); font-family: Menlo, Monaco, &amp;quot;Cascadia Mono&amp;quot;, Consolas, &amp;quot;Ubuntu Mono&amp;quot;, &amp;quot;DejaVu Sans Mono&amp;quot;, &amp;quot;Liberation Mono&amp;quot;, &amp;quot;JetBrains Mono&amp;quot;, &amp;quot;Fira Code&amp;quot;, Cousine, &amp;quot;Roboto Mono&amp;quot;, &amp;quot;Courier New&amp;quot;, Courier, sans-serif, system-ui; font-size: 14px; text-align: left; white-space: pre;&quot;&gt;&#x9;&lt;/span&gt;&lt;font face=&quot;Menlo, Monaco, Cascadia Mono, Consolas, Ubuntu Mono, DejaVu Sans Mono, Liberation Mono, JetBrains Mono, Fira Code, Cousine, Roboto Mono, Courier New, Courier, sans-serif, system-ui&quot; color=&quot;#d9dadb&quot;&gt;&lt;span style=&quot;font-size: 14px; background-color: rgb(66, 66, 67);&quot;&gt;AparelhoTelefonico&lt;/span&gt;&lt;/font&gt;" style="swimlane;fontStyle=0;childLayout=stackLayout;horizontal=1;startSize=26;fillColor=none;horizontalStack=0;resizeParent=1;resizeParentMax=0;resizeLast=0;collapsible=1;marginBottom=0;whiteSpace=wrap;html=1;" vertex="1" parent="1">
          <mxGeometry x="-280" y="310" width="270" height="104" as="geometry" />
        </mxCell>
        <mxCell id="PciFAnugvwf79IO0dadg-18" value="+ ligar(numero: String): void&amp;nbsp;" style="text;strokeColor=none;fillColor=none;align=left;verticalAlign=top;spacingLeft=4;spacingRight=4;overflow=hidden;rotatable=0;points=[[0,0.5],[1,0.5]];portConstraint=eastwest;whiteSpace=wrap;html=1;" vertex="1" parent="PciFAnugvwf79IO0dadg-17">
          <mxGeometry y="26" width="270" height="26" as="geometry" />
        </mxCell>
        <mxCell id="PciFAnugvwf79IO0dadg-19" value="+ atender(): void&amp;nbsp; &amp;nbsp;" style="text;strokeColor=none;fillColor=none;align=left;verticalAlign=top;spacingLeft=4;spacingRight=4;overflow=hidden;rotatable=0;points=[[0,0.5],[1,0.5]];portConstraint=eastwest;whiteSpace=wrap;html=1;" vertex="1" parent="PciFAnugvwf79IO0dadg-17">
          <mxGeometry y="52" width="270" height="26" as="geometry" />
        </mxCell>
        <mxCell id="PciFAnugvwf79IO0dadg-20" value="+ iniciarCorreioVoz(): void&amp;nbsp;" style="text;strokeColor=none;fillColor=none;align=left;verticalAlign=top;spacingLeft=4;spacingRight=4;overflow=hidden;rotatable=0;points=[[0,0.5],[1,0.5]];portConstraint=eastwest;whiteSpace=wrap;html=1;" vertex="1" parent="PciFAnugvwf79IO0dadg-17">
          <mxGeometry y="78" width="270" height="26" as="geometry" />
        </mxCell>
        <mxCell id="PciFAnugvwf79IO0dadg-49" style="edgeStyle=orthogonalEdgeStyle;rounded=0;orthogonalLoop=1;jettySize=auto;html=1;" edge="1" parent="1" target="PciFAnugvwf79IO0dadg-21">
          <mxGeometry relative="1" as="geometry">
            <mxPoint x="60" y="510" as="sourcePoint" />
          </mxGeometry>
        </mxCell>
        <mxCell id="PciFAnugvwf79IO0dadg-21" value="&lt;span style=&quot;color: rgb(21, 22, 23); font-family: Menlo, Monaco, &amp;quot;Cascadia Mono&amp;quot;, Consolas, &amp;quot;Ubuntu Mono&amp;quot;, &amp;quot;DejaVu Sans Mono&amp;quot;, &amp;quot;Liberation Mono&amp;quot;, &amp;quot;JetBrains Mono&amp;quot;, &amp;quot;Fira Code&amp;quot;, Cousine, &amp;quot;Roboto Mono&amp;quot;, &amp;quot;Courier New&amp;quot;, Courier, sans-serif, system-ui; font-size: 14px; text-align: left; background-color: rgb(199, 199, 200);&quot;&gt;&amp;lt;&amp;lt;interface&amp;gt;&amp;gt;NavegadorInternet&lt;/span&gt;&lt;span style=&quot;color: rgb(21, 22, 23); font-family: Menlo, Monaco, &amp;quot;Cascadia Mono&amp;quot;, Consolas, &amp;quot;Ubuntu Mono&amp;quot;, &amp;quot;DejaVu Sans Mono&amp;quot;, &amp;quot;Liberation Mono&amp;quot;, &amp;quot;JetBrains Mono&amp;quot;, &amp;quot;Fira Code&amp;quot;, Cousine, &amp;quot;Roboto Mono&amp;quot;, &amp;quot;Courier New&amp;quot;, Courier, sans-serif, system-ui; font-size: 14px; text-align: left; white-space: pre;&quot;&gt;&#x9;&lt;/span&gt;" style="swimlane;fontStyle=0;childLayout=stackLayout;horizontal=1;startSize=26;fillColor=none;horizontalStack=0;resizeParent=1;resizeParentMax=0;resizeLast=0;collapsible=1;marginBottom=0;whiteSpace=wrap;html=1;" vertex="1" parent="1">
          <mxGeometry x="160" y="290" width="260" height="104" as="geometry" />
        </mxCell>
        <mxCell id="PciFAnugvwf79IO0dadg-22" value="&amp;nbsp;+ exibirPagina(url: String): void" style="text;strokeColor=none;fillColor=none;align=left;verticalAlign=top;spacingLeft=4;spacingRight=4;overflow=hidden;rotatable=0;points=[[0,0.5],[1,0.5]];portConstraint=eastwest;whiteSpace=wrap;html=1;" vertex="1" parent="PciFAnugvwf79IO0dadg-21">
          <mxGeometry y="26" width="260" height="26" as="geometry" />
        </mxCell>
        <mxCell id="PciFAnugvwf79IO0dadg-23" value="&amp;nbsp;+ adicionarNovaAba(): void" style="text;strokeColor=none;fillColor=none;align=left;verticalAlign=top;spacingLeft=4;spacingRight=4;overflow=hidden;rotatable=0;points=[[0,0.5],[1,0.5]];portConstraint=eastwest;whiteSpace=wrap;html=1;" vertex="1" parent="PciFAnugvwf79IO0dadg-21">
          <mxGeometry y="52" width="260" height="26" as="geometry" />
        </mxCell>
        <mxCell id="PciFAnugvwf79IO0dadg-24" value="&amp;nbsp;+ atualizarPagina(): void&amp;nbsp;" style="text;strokeColor=none;fillColor=none;align=left;verticalAlign=top;spacingLeft=4;spacingRight=4;overflow=hidden;rotatable=0;points=[[0,0.5],[1,0.5]];portConstraint=eastwest;whiteSpace=wrap;html=1;" vertex="1" parent="PciFAnugvwf79IO0dadg-21">
          <mxGeometry y="78" width="260" height="26" as="geometry" />
        </mxCell>
        <mxCell id="PciFAnugvwf79IO0dadg-38" value="" style="group" vertex="1" connectable="0" parent="1">
          <mxGeometry x="-70" y="510" width="330" height="316" as="geometry" />
        </mxCell>
        <mxCell id="PciFAnugvwf79IO0dadg-1" value="iPhone" style="swimlane;fontStyle=1;align=center;verticalAlign=top;childLayout=stackLayout;horizontal=1;startSize=26;horizontalStack=0;resizeParent=1;resizeParentMax=0;resizeLast=0;collapsible=1;marginBottom=0;whiteSpace=wrap;html=1;" vertex="1" parent="PciFAnugvwf79IO0dadg-38">
          <mxGeometry width="330" height="60.813559322033896" as="geometry" />
        </mxCell>
        <mxCell id="PciFAnugvwf79IO0dadg-2" value="- modelo: String&amp;nbsp;&amp;nbsp;" style="text;strokeColor=none;fillColor=none;align=left;verticalAlign=top;spacingLeft=4;spacingRight=4;overflow=hidden;rotatable=0;points=[[0,0.5],[1,0.5]];portConstraint=eastwest;whiteSpace=wrap;html=1;" vertex="1" parent="PciFAnugvwf79IO0dadg-1">
          <mxGeometry y="26" width="330" height="34.813559322033896" as="geometry" />
        </mxCell>
        <mxCell id="PciFAnugvwf79IO0dadg-26" value="- versao: String" style="text;strokeColor=default;fillColor=none;align=left;verticalAlign=top;spacingLeft=4;spacingRight=4;overflow=hidden;rotatable=0;points=[[0,0.5],[1,0.5]];portConstraint=eastwest;whiteSpace=wrap;html=1;" vertex="1" parent="PciFAnugvwf79IO0dadg-38">
          <mxGeometry y="69.62711864406779" width="330" height="34.813559322033896" as="geometry" />
        </mxCell>
        <mxCell id="PciFAnugvwf79IO0dadg-27" value="&amp;nbsp;+ iPhone()&amp;nbsp;" style="text;strokeColor=default;fillColor=none;align=left;verticalAlign=top;spacingLeft=4;spacingRight=4;overflow=hidden;rotatable=0;points=[[0,0.5],[1,0.5]];portConstraint=eastwest;whiteSpace=wrap;html=1;" vertex="1" parent="PciFAnugvwf79IO0dadg-38">
          <mxGeometry y="104.44067796610169" width="330" height="34.813559322033896" as="geometry" />
        </mxCell>
        <mxCell id="PciFAnugvwf79IO0dadg-4" value="&amp;nbsp;+ iPhone(modelo: String, versao: String)" style="text;strokeColor=default;fillColor=none;align=left;verticalAlign=top;spacingLeft=4;spacingRight=4;overflow=hidden;rotatable=0;points=[[0,0.5],[1,0.5]];portConstraint=eastwest;whiteSpace=wrap;html=1;" vertex="1" parent="PciFAnugvwf79IO0dadg-38">
          <mxGeometry y="139.25423728813558" width="330" height="34.813559322033896" as="geometry" />
        </mxCell>
        <mxCell id="PciFAnugvwf79IO0dadg-29" value="&amp;nbsp;+ getModelo(): String&amp;nbsp;&amp;nbsp;" style="text;strokeColor=default;fillColor=none;align=left;verticalAlign=top;spacingLeft=4;spacingRight=4;overflow=hidden;rotatable=0;points=[[0,0.5],[1,0.5]];portConstraint=eastwest;whiteSpace=wrap;html=1;" vertex="1" parent="PciFAnugvwf79IO0dadg-38">
          <mxGeometry y="176.74576271186442" width="330" height="34.813559322033896" as="geometry" />
        </mxCell>
        <mxCell id="PciFAnugvwf79IO0dadg-30" value="+ setModelo(modelo: String): void" style="text;strokeColor=default;fillColor=none;align=left;verticalAlign=top;spacingLeft=4;spacingRight=4;overflow=hidden;rotatable=0;points=[[0,0.5],[1,0.5]];portConstraint=eastwest;whiteSpace=wrap;html=1;" vertex="1" parent="PciFAnugvwf79IO0dadg-38">
          <mxGeometry y="211.5593220338983" width="330" height="34.813559322033896" as="geometry" />
        </mxCell>
        <mxCell id="PciFAnugvwf79IO0dadg-31" value="&amp;nbsp;+ getVersao(): String" style="text;strokeColor=default;fillColor=none;align=left;verticalAlign=top;spacingLeft=4;spacingRight=4;overflow=hidden;rotatable=0;points=[[0,0.5],[1,0.5]];portConstraint=eastwest;whiteSpace=wrap;html=1;" vertex="1" parent="PciFAnugvwf79IO0dadg-38">
          <mxGeometry y="246.3728813559322" width="330" height="34.813559322033896" as="geometry" />
        </mxCell>
        <mxCell id="PciFAnugvwf79IO0dadg-32" value="+ setVersao(versao: String): void" style="text;strokeColor=default;fillColor=none;align=left;verticalAlign=top;spacingLeft=4;spacingRight=4;overflow=hidden;rotatable=0;points=[[0,0.5],[1,0.5]];portConstraint=eastwest;whiteSpace=wrap;html=1;" vertex="1" parent="PciFAnugvwf79IO0dadg-38">
          <mxGeometry y="281.1864406779661" width="330" height="34.813559322033896" as="geometry" />
        </mxCell>
        <mxCell id="PciFAnugvwf79IO0dadg-42" style="edgeStyle=orthogonalEdgeStyle;rounded=0;orthogonalLoop=1;jettySize=auto;html=1;entryX=0.482;entryY=0.962;entryDx=0;entryDy=0;entryPerimeter=0;" edge="1" parent="1" source="PciFAnugvwf79IO0dadg-17" target="PciFAnugvwf79IO0dadg-16">
          <mxGeometry relative="1" as="geometry" />
        </mxCell>
      </root>
    </mxGraphModel>
  </diagram>
</mxfile>
